<svg width="23" height="15" viewBox="0 0 23 15" fill="none" xmlns="http://www.w3.org/2000/svg">
<path d="M11.5 2C15.29 2 18.67 4.13 20.32 7.5C18.67 10.87 15.29 13 11.5 13C7.71 13 4.33 10.87 2.68 7.5C4.33 4.13 7.71 2 11.5 2ZM11.5 0C6.5 0 2.23 3.11 0.5 7.5C2.23 11.89 6.5 15 11.5 15C16.5 15 20.77 11.89 22.5 7.5C20.77 3.11 16.5 0 11.5 0ZM11.5 5C12.88 5 14 6.12 14 7.5C14 8.88 12.88 10 11.5 10C10.12 10 9 8.88 9 7.5C9 6.12 10.12 5 11.5 5ZM11.5 3C9.02 3 7 5.02 7 7.5C7 9.98 9.02 12 11.5 12C13.98 12 16 9.98 16 7.5C16 5.02 13.98 3 11.5 3Z" fill="#222222"/>
</svg>
