<svg width="47" height="47" viewBox="0 0 47 47" fill="none" xmlns="http://www.w3.org/2000/svg">
<path d="M39.4464 36.9285H38.1875V19.0937C38.1875 11.6923 32.7164 5.57598 25.5982 4.55834V2.51783C25.5982 1.35857 24.6593 0.419617 23.5 0.419617C22.3407 0.419617 21.4018 1.35857 21.4018 2.51783V4.55834C14.2836 5.57598 8.8125 11.6923 8.8125 19.0937V36.9285H7.55357C6.62511 36.9285 5.875 37.6787 5.875 38.6071V40.2857C5.875 40.5165 6.06384 40.7053 6.29464 40.7053H17.625C17.625 43.9471 20.2583 46.5803 23.5 46.5803C26.7417 46.5803 29.375 43.9471 29.375 40.7053H40.7054C40.9362 40.7053 41.125 40.5165 41.125 40.2857V38.6071C41.125 37.6787 40.3749 36.9285 39.4464 36.9285ZM23.5 43.2232C22.1099 43.2232 20.9821 42.0954 20.9821 40.7053H26.0179C26.0179 42.0954 24.8901 43.2232 23.5 43.2232ZM12.5893 36.9285V19.0937C12.5893 16.1772 13.7223 13.439 15.7838 11.3775C17.8453 9.31605 20.5835 8.18301 23.5 8.18301C26.4165 8.18301 29.1547 9.31605 31.2162 11.3775C33.2777 13.439 34.4107 16.1772 34.4107 19.0937V36.9285H12.5893Z" fill="#F4F4F4"/>
</svg>
