<svg width="47" height="47" viewBox="0 0 47 47" fill="none" xmlns="http://www.w3.org/2000/svg">
<g clip-path="url(#clip0_6_161)">
<path d="M26.6998 18.7266C25.4881 18.7266 24.5491 19.6655 24.5491 20.8248C24.5491 21.984 25.4881 22.923 26.6998 22.923C27.8066 22.923 28.7456 21.984 28.7456 20.8248C28.7456 19.6655 27.8066 18.7266 26.6998 18.7266ZM12.0123 18.7266C10.8006 18.7266 9.86163 19.6655 9.86163 20.8248C9.86163 21.984 10.8006 22.923 12.0123 22.923C13.1191 22.923 14.0581 21.984 14.0581 20.8248C14.0581 19.6655 13.1191 18.7266 12.0123 18.7266Z" fill="#F4F4F4"/>
<path d="M43.5379 14.74C41.111 11.3993 37.6116 8.99226 33.6239 7.92076V7.92601C32.7269 6.92935 31.7145 6.01138 30.5814 5.19308C21.9945 -1.04911 9.94026 0.855024 3.67185 9.44197C-1.3796 16.4185 -1.16454 25.8028 3.98658 32.4699L4.02854 39.4254C4.02854 39.5933 4.05477 39.7612 4.10723 39.9185C4.17321 40.1287 4.27998 40.3239 4.42144 40.4927C4.56291 40.6616 4.73628 40.801 4.93165 40.9028C5.12702 41.0046 5.34054 41.0669 5.56001 41.0862C5.77948 41.1054 6.00059 41.0812 6.21069 41.0148L12.8515 38.9219C14.6088 39.5461 16.4237 39.9028 18.2282 40.0025L18.202 40.0234C22.8758 43.4278 29.0025 44.4507 34.6205 42.5938L41.2876 44.7654C41.4554 44.8179 41.6285 44.8493 41.8069 44.8493C42.7354 44.8493 43.4855 44.0992 43.4855 43.1708V36.1417C48.1068 29.8681 48.2274 21.1972 43.5379 14.74ZM13.5859 35.1975L12.9564 34.9353L7.76336 36.5614L7.71091 31.106L7.29127 30.6339C2.85354 25.2205 2.55979 17.4204 6.71426 11.6975C11.771 4.76295 21.4647 3.23125 28.3783 8.23549C35.3129 13.2765 36.8499 22.9545 31.8404 29.8471C27.6387 35.6119 20.1166 37.7416 13.5859 35.1975ZM40.0759 34.3058L39.6562 34.8304L39.7087 40.2857L34.5681 38.5547L33.9386 38.817C31.0011 39.908 27.8695 39.9972 24.9687 39.1842L24.9582 39.1789C28.945 37.9563 32.4275 35.4733 34.8828 32.1027C38.8904 26.5791 39.5408 19.6393 37.2118 13.7223L37.2433 13.7433C38.4497 14.6088 39.5566 15.6894 40.4955 16.9955C44.3038 22.2201 44.0887 29.333 40.0759 34.3058Z" fill="#F4F4F4"/>
<path d="M19.3561 18.7266C18.1443 18.7266 17.2054 19.6655 17.2054 20.8248C17.2054 21.984 18.1443 22.923 19.3561 22.923C20.4629 22.923 21.4018 21.984 21.4018 20.8248C21.4018 19.6655 20.4629 18.7266 19.3561 18.7266Z" fill="#F4F4F4"/>
</g>
<defs>
<clipPath id="clip0_6_161">
<rect width="47" height="47" fill="white"/>
</clipPath>
</defs>
</svg>
