<svg width="47" height="47" viewBox="0 0 47 47" fill="none" xmlns="http://www.w3.org/2000/svg">
<g clip-path="url(#clip0_6_157)">
<path d="M46.2918 23.1328L26.0231 2.87458L24.6645 1.51599C24.3549 1.20848 23.9363 1.03589 23.5 1.03589C23.0636 1.03589 22.645 1.20848 22.3355 1.51599L0.708119 23.1328C0.390927 23.4488 0.140245 23.8251 -0.02913 24.2395C-0.198505 24.6539 -0.283141 25.0981 -0.278042 25.5458C-0.25706 27.3922 1.27988 28.8662 3.12631 28.8662H5.35566V45.9509H41.6443V28.8662H43.9208C44.8178 28.8662 45.6624 28.5148 46.2971 27.88C46.6096 27.5685 46.8572 27.1981 47.0256 26.7902C47.194 26.3823 47.2798 25.9451 47.278 25.5038C47.278 24.6121 46.9265 23.7675 46.2918 23.1328ZM26.4375 42.1741H20.5625V31.4732H26.4375V42.1741ZM37.8675 25.0894V42.1741H29.7946V30.2143C29.7946 29.055 28.8557 28.1161 27.6964 28.1161H19.3035C18.1443 28.1161 17.2053 29.055 17.2053 30.2143V42.1741H9.13245V25.0894H4.09674L23.5052 5.69668L24.7169 6.9084L42.9085 25.0894H37.8675Z" fill="#F4F4F4"/>
</g>
<defs>
<clipPath id="clip0_6_157">
<rect width="47" height="47" fill="white"/>
</clipPath>
</defs>
</svg>
