<svg width="47" height="47" viewBox="0 0 47 47" fill="none" xmlns="http://www.w3.org/2000/svg">
<g clip-path="url(#clip0_6_165)">
<path d="M45.1536 29.4642L41.7177 26.5267C41.8803 25.53 41.9643 24.5124 41.9643 23.4947C41.9643 22.4771 41.8803 21.4595 41.7177 20.4628L45.1536 17.5253C45.4127 17.3035 45.5982 17.008 45.6853 16.6782C45.7725 16.3483 45.7571 15.9998 45.6414 15.6789L45.5942 15.5425C44.6483 12.8989 43.2319 10.4482 41.4135 8.30892L41.3191 8.19877C41.0985 7.93939 40.8045 7.75293 40.4758 7.66397C40.1471 7.57501 39.7992 7.58773 39.4779 7.70044L35.2133 9.2164C33.6396 7.926 31.8824 6.90837 29.9835 6.19497L29.1599 1.73627C29.0978 1.40077 28.935 1.09213 28.6933 0.851334C28.4516 0.610539 28.1423 0.448995 27.8066 0.388164L27.6649 0.361937C24.932 -0.131144 22.0575 -0.131144 19.3245 0.361937L19.1829 0.388164C18.8472 0.448995 18.5379 0.610539 18.2962 0.851334C18.0544 1.09213 17.8917 1.40077 17.8296 1.73627L17.0008 6.21595C15.117 6.9295 13.3628 7.94659 11.8077 9.22689L7.51159 7.70044C7.19039 7.58683 6.84222 7.57366 6.51334 7.66267C6.18447 7.75168 5.89047 7.93866 5.67041 8.19877L5.57599 8.30892C3.7597 10.4498 2.34357 12.9 1.3953 15.5425L1.34809 15.6789C1.11204 16.3346 1.30612 17.069 1.83592 17.5253L5.31371 20.4943C5.1511 21.4805 5.07242 22.4876 5.07242 23.4895C5.07242 24.4966 5.1511 25.5038 5.31371 26.4847L1.83592 29.4537C1.57677 29.6755 1.39129 29.971 1.30415 30.3008C1.21701 30.6307 1.23234 30.9792 1.34809 31.3001L1.3953 31.4365C2.34474 34.0802 3.75054 36.5194 5.57599 38.6701L5.67041 38.7802C5.89101 39.0396 6.18502 39.2261 6.51369 39.315C6.84237 39.404 7.19029 39.3913 7.51159 39.2786L11.8077 37.7521C13.3709 39.0373 15.1176 40.0549 17.0008 40.7631L17.8296 45.2427C17.8917 45.5782 18.0544 45.8869 18.2962 46.1277C18.5379 46.3685 18.8472 46.53 19.1829 46.5908L19.3245 46.6171C22.0826 47.1128 24.9069 47.1128 27.6649 46.6171L27.8066 46.5908C28.1423 46.53 28.4516 46.3685 28.6933 46.1277C28.935 45.8869 29.0978 45.5782 29.1599 45.2427L29.9835 40.784C31.8816 40.0725 33.6488 39.0516 35.2133 37.7626L39.4779 39.2786C39.7991 39.3922 40.1473 39.4053 40.4761 39.3163C40.805 39.2273 41.099 39.0403 41.3191 38.7802L41.4135 38.6701C43.2389 36.5142 44.6447 34.0802 45.5942 31.4365L45.6414 31.3001C45.8774 30.6549 45.6834 29.9205 45.1536 29.4642ZM37.9934 21.0818C38.1245 21.8739 38.1927 22.6869 38.1927 23.5C38.1927 24.3131 38.1245 25.1261 37.9934 25.9182L37.6472 28.0216L41.5656 31.3735C40.9716 32.7421 40.2218 34.0375 39.331 35.2343L34.4632 33.5085L32.8161 34.8618C31.5624 35.8899 30.1671 36.6978 28.6563 37.2643L26.6578 38.0144L25.7188 43.1026C24.2374 43.2704 22.7416 43.2704 21.2601 43.1026L20.3212 38.0039L18.3384 37.2433C16.8434 36.6768 15.4533 35.869 14.2101 34.8461L12.563 33.4875L7.66371 35.229C6.77197 34.0278 6.02711 32.7321 5.42912 31.3683L9.3895 27.9849L9.04854 25.8867C8.92264 25.1051 8.85445 24.2973 8.85445 23.5C8.85445 22.6974 8.9174 21.8949 9.04854 21.1133L9.3895 19.0151L5.42912 15.6317C6.02186 14.2626 6.77197 12.9722 7.66371 11.771L12.563 13.5125L14.2101 12.1539C15.4533 11.131 16.8434 10.3232 18.3384 9.75669L20.3264 9.00658L21.2654 3.90792C22.7394 3.74006 24.2449 3.74006 25.7241 3.90792L26.663 8.99609L28.6616 9.7462C30.1671 10.3127 31.5676 11.1205 32.8213 12.1487L34.4684 13.502L39.3363 11.7762C40.228 12.9775 40.9729 14.2731 41.5709 15.6369L37.6524 18.9888L37.9934 21.0818ZM23.5 13.7433C18.4013 13.7433 14.2678 17.8768 14.2678 22.9754C14.2678 28.0741 18.4013 32.2076 23.5 32.2076C28.5986 32.2076 32.7321 28.0741 32.7321 22.9754C32.7321 17.8768 28.5986 13.7433 23.5 13.7433ZM27.6545 27.1299C27.1096 27.6764 26.462 28.1097 25.749 28.405C25.036 28.7003 24.2717 28.8516 23.5 28.8504C21.9316 28.8504 20.4576 28.2367 19.3455 27.1299C18.7991 26.585 18.3657 25.9374 18.0705 25.2245C17.7752 24.5115 17.6238 23.7471 17.625 22.9754C17.625 21.407 18.2387 19.933 19.3455 18.821C20.4576 17.7089 21.9316 17.1004 23.5 17.1004C25.0684 17.1004 26.5424 17.7089 27.6545 18.821C28.2009 19.3659 28.6342 20.0134 28.9295 20.7264C29.2248 21.4394 29.3762 22.2037 29.375 22.9754C29.375 24.5439 28.7613 26.0179 27.6545 27.1299Z" fill="#F4F4F4"/>
</g>
<defs>
<clipPath id="clip0_6_165">
<rect width="47" height="47" fill="white"/>
</clipPath>
</defs>
</svg>
